<svg width="229" height="51" viewBox="0 0 229 51" fill="none" xmlns="http://www.w3.org/2000/svg">
<g filter="url(#filter0_d_1_21)">
<path d="M25.4856 13.2343H35.254L44.0522 35.6116L52.7836 13.2343H62V14.0088H61.1469C59.7084 14.0088 58.6379 14.4484 57.9354 15.3276C57.244 16.1928 56.8984 17.5256 56.8984 19.3258V36.3442C56.8984 38.1305 57.2496 39.4632 57.9521 40.3424C58.6547 41.2216 59.7196 41.6611 61.1469 41.6611H62V42.4775H46.8958V41.6611H47.8994C49.3267 41.6611 50.3861 41.2285 51.0775 40.3633C51.78 39.4841 52.1312 38.1444 52.1312 36.3442V16.458H52.0643L42.0283 42.4775H41.4596L31.3065 16.5417H31.2396V35.4022C31.2396 36.714 31.4403 37.8304 31.8417 38.7515C32.2432 39.6586 32.8342 40.3633 33.6148 40.8657C34.3954 41.3541 35.3432 41.6193 36.4583 41.6611V42.4775H25.4856V41.6611H25.7198C27.2252 41.6611 28.4072 41.1099 29.2658 40.0075C30.1245 38.905 30.5538 37.4118 30.5538 35.5278V19.3258C30.5538 17.5116 30.2081 16.1719 29.5167 15.3067C28.8254 14.4415 27.7549 14.0088 26.3052 14.0088H25.4856V13.2343Z" fill="white"/>
</g>
<g filter="url(#filter1_d_1_21)">
<path fill-rule="evenodd" clip-rule="evenodd" d="M35.254 13.2343H25.4856V14.0088H26.3052C27.7549 14.0088 28.8254 14.4415 29.5167 15.3067C30.2081 16.1719 30.5538 17.5116 30.5538 19.3258V35.5278C30.5538 37.4118 30.1245 38.905 29.2658 40.0075C28.4072 41.1099 27.2252 41.6611 25.7198 41.6611H25.4856V42.4775H36.4583V41.6611C35.3432 41.6193 34.3954 41.3541 33.6148 40.8657C32.8342 40.3633 32.2432 39.6586 31.8417 38.7515C31.4403 37.8304 31.2396 36.714 31.2396 35.4022V16.5417H31.3065L41.4596 42.4775H42.0283L52.0643 16.458H52.1312V36.3442C52.1312 38.1444 51.78 39.4841 51.0775 40.3633C50.3861 41.2285 49.3267 41.6611 47.8994 41.6611H46.8958V42.4775H62V41.6611H61.1469C59.7196 41.6611 58.6547 41.2216 57.9521 40.3424C57.2496 39.4632 56.8984 38.1305 56.8984 36.3442V19.3258C56.8984 17.5256 57.244 16.1928 57.9354 15.3276C58.6379 14.4484 59.7084 14.0088 61.1469 14.0088H62V13.2343H52.7836L44.0522 35.6116L35.254 13.2343ZM43.6989 36.4163L34.8799 13.9864H29.0835C29.403 14.1986 29.6902 14.4602 29.9417 14.7749C30.2273 15.1323 30.4581 15.5474 30.6386 16.014V15.7896H31.6813L41.7421 41.4895L43.6989 36.4163ZM30.9079 37.886C30.6752 38.9011 30.2751 39.7892 29.6962 40.5324C29.3072 41.0318 28.8641 41.428 28.3714 41.7254H33.6704C33.56 41.6669 33.4518 41.6046 33.346 41.5384L33.3399 41.5346C32.4601 40.9683 31.7786 40.1612 31.316 39.1159L31.3141 39.1116C31.1469 38.7278 31.0119 38.3188 30.9079 37.886ZM52.488 15.7059L53.1589 13.9864H58.3912C58.0638 14.2036 57.7691 14.4721 57.5104 14.7958C56.6627 15.8567 56.2974 17.4197 56.2974 19.3258V36.3442C56.2974 38.2424 56.6706 39.8022 57.5272 40.8742C57.8027 41.219 58.1185 41.5012 58.4707 41.7254H50.5831C50.9265 41.5059 51.2343 41.2307 51.5024 40.8951C52.3598 39.8222 52.7322 38.2544 52.7322 36.3442V15.7059H52.488Z" fill="white"/>
</g>
<g filter="url(#filter2_d_1_21)">
<path d="M4 0H23.4353V0.95116H21.1769C20.2793 0.95116 19.5772 1.15951 19.0705 1.57621C18.5783 1.99291 18.3321 2.58172 18.3321 3.34265C18.3321 3.72311 18.4045 4.08546 18.5493 4.42969C18.6941 4.7558 19.1211 5.56202 19.8305 6.84835L27.3657 19.8656L34.1192 8.75067C35.0313 7.30128 35.4873 6.06025 35.4873 5.02756C35.4873 3.83181 35.0892 2.86254 34.293 2.11973C33.4967 1.37692 32.4616 1.00551 31.1877 1.00551H29.1898V0H44.7815V0.95116C43.7536 1.0961 42.8271 1.34068 42.0019 1.68491C41.1767 2.01102 40.4167 2.44584 39.7218 2.98936C39.0269 3.51476 38.3031 4.2304 37.5503 5.13626C36.8119 6.04213 36.0953 7.0567 35.4004 8.17997L27.7566 20.8168V30.0023C27.7566 32.3213 28.2126 34.0515 29.1247 35.1929C30.0367 36.3343 31.4193 36.905 33.2723 36.905H35.3136V37.9649H13.7068V36.905H15.8349C17.7024 36.905 19.0849 36.3434 19.9825 35.2201C20.8946 34.0787 21.3506 32.3394 21.3506 30.0023V21.8223L12.2736 6.30483C11.1154 4.31192 9.97897 2.93501 8.86424 2.17408C7.74952 1.39503 6.30907 1.00551 4.54288 1.00551H4V0Z" fill="white"/>
</g>
<path d="M72.8281 29.6562L75.5352 24.5352C75.7305 24.1602 75.8945 23.8398 76.0273 23.5742C76.1602 23.3086 76.2266 23.0898 76.2266 22.918C76.2266 22.6758 76.0547 22.5078 75.7109 22.4141L74.6562 22.1328L74.6328 21.5938C75.4766 21.625 76.3398 21.6406 77.2227 21.6406C78.0742 21.6406 78.9023 21.625 79.707 21.5938L79.7539 22.0977L78.5703 22.4727C78.2891 22.5586 78.0703 22.6953 77.9141 22.8828C77.7656 23.0703 77.6133 23.3008 77.457 23.5742L73.4023 30.8047V34.3672C73.4023 34.8359 73.4023 35.2617 73.4023 35.6445C73.4102 36.0273 73.418 36.375 73.4258 36.6875C73.4336 36.8828 73.5703 37.0156 73.8359 37.0859L75.2891 37.5312L75.3125 38.0352C74.2188 38.0117 73.2109 38 72.2891 38C71.3438 38 70.332 38.0117 69.2539 38.0352L69.207 37.5312L70.7773 37.0625C70.9727 37.0078 71.0781 36.8867 71.0938 36.6992C71.1016 36.3867 71.1055 36.0391 71.1055 35.6562C71.1133 35.2656 71.1172 34.8359 71.1172 34.3672V31.0508L66.9922 23.9023C66.7031 23.4258 66.4648 23.082 66.2773 22.8711C66.0977 22.6602 65.8555 22.5117 65.5508 22.4258L64.4844 22.0977L64.4609 21.5938C65.1719 21.625 66.1328 21.6406 67.3438 21.6406C68.3984 21.6406 69.4883 21.625 70.6133 21.5938L70.6602 22.0977L69.5586 22.4023C69.3945 22.4414 69.2773 22.5 69.207 22.5781C69.1367 22.6484 69.1016 22.7383 69.1016 22.8477C69.1016 23.0117 69.1602 23.2148 69.2773 23.457C69.4023 23.6914 69.5547 23.9648 69.7344 24.2773L72.8281 29.6562ZM87.9453 37.168C87.2812 37.582 86.5977 37.8789 85.8945 38.0586C85.1914 38.2383 84.5391 38.3281 83.9375 38.3281C82.2188 38.3281 80.8477 37.8398 79.8242 36.8633C78.8008 35.8789 78.2891 34.5156 78.2891 32.7734C78.2891 31.0391 78.7773 29.6211 79.7539 28.5195C80.7383 27.418 82.0508 26.8672 83.6914 26.8672C85.0664 26.8672 86.1367 27.2812 86.9023 28.1094C87.668 28.9297 88.0508 30.0664 88.0508 31.5195C88.0508 31.7383 88.0391 31.9609 88.0156 32.1875H80.5859C80.5859 33.8672 80.9805 35.0703 81.7695 35.7969C82.5586 36.5156 83.793 36.875 85.4727 36.875C86.2227 36.875 87.0234 36.8047 87.875 36.6641L87.9453 37.168ZM85.7188 31.2148V30.8633C85.7188 29.7539 85.5391 28.9609 85.1797 28.4844C84.8281 28.0078 84.3008 27.7695 83.5977 27.7695C82.668 27.7695 81.957 28.1055 81.4648 28.7773C80.9727 29.4492 80.6953 30.2617 80.6328 31.2148H85.7188ZM89.5625 27.6875C90.8672 27.4375 92.1055 27.1641 93.2773 26.8672L93.3945 26.9492V28.3203C94.8398 27.3516 96.2578 26.8672 97.6484 26.8672L97.707 26.9375C97.4805 28.1016 97.2578 29.3086 97.0391 30.5586L96.5703 30.6406C96.3516 29.9766 96.1406 29.4453 95.9375 29.0469C95.7344 28.6406 95.4141 28.4375 94.9766 28.4375C94.5547 28.4375 94.0273 28.6328 93.3945 29.0234V34.0977C93.3945 35.3164 93.4023 36.1875 93.418 36.7109C93.4258 36.9219 93.5234 37.0547 93.7109 37.1094L95.2695 37.5547L95.3047 38.0352C94.0859 38.0117 93.0938 38 92.3281 38C91.5625 38 90.6562 38.0117 89.6094 38.0352L89.5625 37.5547L90.9219 37.1562C91.1094 37.0938 91.207 36.9727 91.2148 36.793C91.2227 36.457 91.2266 35.9766 91.2266 35.3516V31.3555C91.2266 30.082 91.2109 29.1328 91.1797 28.5078L89.6211 28.0859L89.5625 27.6875ZM102.289 28.4141C102.242 31.0547 102.219 33.1836 102.219 34.8008C102.219 35.6133 102.34 36.1758 102.582 36.4883C102.824 36.793 103.285 36.9453 103.965 36.9453C104.504 36.9453 105.207 36.875 106.074 36.7344L106.145 37.2617C104.793 37.9414 103.586 38.2812 102.523 38.2812C101.672 38.2812 101.039 38.0547 100.625 37.6016C100.211 37.1406 100.004 36.4492 100.004 35.5273C100.004 34.0117 100.031 31.6172 100.086 28.3438L98.4688 27.9453L98.3984 27.4648L100.203 27.3125L101.012 24.4766C101.449 24.3594 101.848 24.2461 102.207 24.1367L102.324 24.2188C102.301 25.1641 102.289 26.0469 102.289 26.8672V27.3008H105.816V28.4141H102.289ZM111.219 22.7188C111.219 23.1328 111.09 23.4727 110.832 23.7383C110.574 23.9961 110.242 24.125 109.836 24.125C109.445 24.125 109.125 24.0039 108.875 23.7617C108.633 23.5195 108.512 23.1992 108.512 22.8008C108.512 22.3789 108.641 22.0469 108.898 21.8047C109.156 21.5547 109.496 21.4297 109.918 21.4297C110.301 21.4297 110.613 21.543 110.855 21.7695C111.098 21.9883 111.219 22.3047 111.219 22.7188ZM107.258 27.6875C108.625 27.4297 109.891 27.1562 111.055 26.8672L111.16 26.9492C111.113 27.9648 111.09 29.082 111.09 30.3008V34.8008C111.09 35.7383 111.098 36.3867 111.113 36.7461C111.129 36.957 111.227 37.0938 111.406 37.1562L112.766 37.5547L112.789 38.0352C111.711 38.0117 110.789 38 110.023 38C109.258 38 108.348 38.0117 107.293 38.0352L107.246 37.5547L108.605 37.1562C108.785 37.0938 108.883 36.9727 108.898 36.793C108.914 36.4883 108.922 35.9766 108.922 35.2578V31.3438C108.922 30.3203 108.906 29.375 108.875 28.5078L107.316 28.0859L107.258 27.6875ZM135.605 21.5938C136.34 21.625 137.004 21.6406 137.598 21.6406C138.176 21.6406 138.953 21.625 139.93 21.5938L139.977 22.0977L138.5 22.5547C138.32 22.6172 138.227 22.75 138.219 22.9531C138.203 23.4688 138.195 24.1172 138.195 24.8984V34.4023C138.195 35.3242 138.203 36.1016 138.219 36.7344C138.227 36.9141 138.336 37.0352 138.547 37.0977L139.953 37.5312L139.977 38.0352C138.945 38.0117 137.961 38 137.023 38C136.102 38 135.191 38.0117 134.293 38.0352L134.246 37.5312L135.594 37.1211C135.781 37.0664 135.879 36.9297 135.887 36.7109C135.902 36.0938 135.91 35.3242 135.91 34.4023V24.2539L130.098 38L129.242 38.0938L123.395 24.2539V34.4023C123.395 35.3242 123.402 36.0938 123.418 36.7109C123.426 36.9297 123.527 37.0664 123.723 37.1211L125.035 37.5312L125.059 38.0352C124.129 38.0117 123.352 38 122.727 38C122.117 38 121.309 38.0117 120.301 38.0352L120.254 37.5312L121.695 37.0977C121.898 37.0352 122.004 36.9141 122.012 36.7344C122.027 36.1016 122.035 35.3242 122.035 34.4023V24.8984C122.035 24.1172 122.027 23.4688 122.012 22.9531C122.004 22.75 121.91 22.6172 121.73 22.5547L120.277 22.0977L120.254 21.5938C121.262 21.625 122.059 21.6406 122.645 21.6406C123.316 21.6406 124.016 21.625 124.742 21.5938L130.18 34.4492L135.605 21.5938ZM143.949 32.4688C143.949 33.9297 144.223 35.1211 144.77 36.043C145.316 36.957 146.129 37.4141 147.207 37.4141C148.215 37.4141 148.98 37.0117 149.504 36.207C150.035 35.3945 150.301 34.1953 150.301 32.6094C150.301 31.1172 150.023 29.9414 149.469 29.082C148.914 28.2227 148.109 27.793 147.055 27.793C146.055 27.793 145.285 28.1797 144.746 28.9531C144.215 29.7266 143.949 30.8984 143.949 32.4688ZM152.691 32.3633C152.691 34.1445 152.152 35.5859 151.074 36.6875C150.004 37.7812 148.641 38.3281 146.984 38.3281C145.367 38.3281 144.059 37.8125 143.059 36.7812C142.066 35.7422 141.57 34.3867 141.57 32.7148C141.57 30.9961 142.09 29.5938 143.129 28.5078C144.176 27.4141 145.559 26.8672 147.277 26.8672C148.902 26.8672 150.211 27.3711 151.203 28.3789C152.195 29.3789 152.691 30.707 152.691 32.3633ZM160.332 28.0508C159.879 27.9258 159.387 27.8633 158.855 27.8633C158.121 27.8633 157.527 28.0078 157.074 28.2969C156.629 28.5781 156.406 28.9648 156.406 29.457C156.406 29.9336 156.551 30.3086 156.84 30.582C157.137 30.8555 157.684 31.125 158.48 31.3906L159.441 31.7188C160.52 32.0859 161.309 32.5078 161.809 32.9844C162.316 33.4531 162.57 34.0703 162.57 34.8359C162.57 35.9219 162.148 36.7773 161.305 37.4023C160.461 38.0195 159.395 38.3281 158.105 38.3281C156.918 38.3281 155.703 38.0859 154.461 37.6016C154.727 36.5859 154.941 35.5938 155.105 34.625L155.562 34.5547L156.406 37.0742C156.852 37.2461 157.418 37.332 158.105 37.332C158.832 37.332 159.41 37.1836 159.84 36.8867C160.277 36.5898 160.496 36.1719 160.496 35.6328C160.496 35.1328 160.348 34.7383 160.051 34.4492C159.762 34.1602 159.297 33.9102 158.656 33.6992L157.438 33.2891C156.383 32.9375 155.652 32.5156 155.246 32.0234C154.848 31.5234 154.648 30.9062 154.648 30.1719C154.648 29.1484 155.035 28.3438 155.809 27.7578C156.59 27.1641 157.617 26.8672 158.891 26.8672C160.078 26.8672 161.156 27.0391 162.125 27.3828C161.906 28.2734 161.707 29.2148 161.527 30.207L161.082 30.2891L160.332 28.0508ZM172.484 28.1094C171.859 27.9531 171.254 27.875 170.668 27.875C169.293 27.875 168.27 28.2852 167.598 29.1055C166.926 29.918 166.59 31.0586 166.59 32.5273C166.59 33.8789 166.895 34.9492 167.504 35.7383C168.121 36.5273 169.016 36.9219 170.188 36.9219C171 36.9219 171.766 36.7852 172.484 36.5117V28.1094ZM174.723 26.9492C174.676 28.4414 174.652 30.2227 174.652 32.293V40.0039C174.652 41.293 174.656 42.0938 174.664 42.4062C174.672 42.6172 174.762 42.75 174.934 42.8047L176.281 43.2148L176.305 43.6953C175.25 43.6719 174.344 43.6602 173.586 43.6602C172.812 43.6602 171.906 43.6719 170.867 43.6953L170.809 43.2148L172.156 42.8164C172.352 42.7539 172.453 42.6328 172.461 42.4531C172.477 41.5078 172.484 40.3242 172.484 38.9023V37.2266C171.297 37.9609 170.141 38.3281 169.016 38.3281C167.578 38.3281 166.426 37.8242 165.559 36.8164C164.691 35.8008 164.258 34.5273 164.258 32.9961C164.258 31.1133 164.812 29.6211 165.922 28.5195C167.039 27.418 168.586 26.8672 170.562 26.8672C171.375 26.8672 172.332 26.9609 173.434 27.1484C173.809 27.0625 174.203 26.9688 174.617 26.8672L174.723 26.9492ZM185.984 36.9688C184.766 37.875 183.547 38.3281 182.328 38.3281C181.102 38.3281 180.18 38.0156 179.562 37.3906C178.953 36.7656 178.648 35.8867 178.648 34.7539V32.2695C178.648 30.5977 178.633 29.3438 178.602 28.5078L177.043 28.0859L176.984 27.6875C178.352 27.4375 179.617 27.1641 180.781 26.8672L180.887 26.9492C180.84 27.8633 180.816 29.0391 180.816 30.4766V34.2031C180.816 35.1484 181.039 35.8359 181.484 36.2656C181.93 36.6875 182.559 36.8984 183.371 36.8984C184.184 36.8984 185.016 36.6836 185.867 36.2539V31.2617C185.867 30.168 185.852 29.25 185.82 28.5078L184.273 28.0859L184.215 27.6875C185.574 27.4375 186.836 27.1641 188 26.8672L188.105 26.9492C188.059 27.8867 188.035 29.0859 188.035 30.5469C188.035 33.3828 188.043 35.1133 188.059 35.7383C188.066 36.0586 188.09 36.3164 188.129 36.5117C188.168 36.707 188.242 36.8594 188.352 36.9688C188.461 37.0703 188.621 37.1445 188.832 37.1914C189.051 37.2305 189.34 37.2539 189.699 37.2617L189.758 37.7188C189.398 37.8594 188.984 37.9922 188.516 38.1172C188.047 38.25 187.727 38.3164 187.555 38.3164C186.766 38.3164 186.242 37.8672 185.984 36.9688ZM200.891 37.168C200.227 37.582 199.543 37.8789 198.84 38.0586C198.137 38.2383 197.484 38.3281 196.883 38.3281C195.164 38.3281 193.793 37.8398 192.77 36.8633C191.746 35.8789 191.234 34.5156 191.234 32.7734C191.234 31.0391 191.723 29.6211 192.699 28.5195C193.684 27.418 194.996 26.8672 196.637 26.8672C198.012 26.8672 199.082 27.2812 199.848 28.1094C200.613 28.9297 200.996 30.0664 200.996 31.5195C200.996 31.7383 200.984 31.9609 200.961 32.1875H193.531C193.531 33.8672 193.926 35.0703 194.715 35.7969C195.504 36.5156 196.738 36.875 198.418 36.875C199.168 36.875 199.969 36.8047 200.82 36.6641L200.891 37.168ZM198.664 31.2148V30.8633C198.664 29.7539 198.484 28.9609 198.125 28.4844C197.773 28.0078 197.246 27.7695 196.543 27.7695C195.613 27.7695 194.902 28.1055 194.41 28.7773C193.918 29.4492 193.641 30.2617 193.578 31.2148H198.664ZM206.469 22.7188C206.469 23.1328 206.34 23.4727 206.082 23.7383C205.824 23.9961 205.492 24.125 205.086 24.125C204.695 24.125 204.375 24.0039 204.125 23.7617C203.883 23.5195 203.762 23.1992 203.762 22.8008C203.762 22.3789 203.891 22.0469 204.148 21.8047C204.406 21.5547 204.746 21.4297 205.168 21.4297C205.551 21.4297 205.863 21.543 206.105 21.7695C206.348 21.9883 206.469 22.3047 206.469 22.7188ZM202.508 27.6875C203.875 27.4297 205.141 27.1562 206.305 26.8672L206.41 26.9492C206.363 27.9648 206.34 29.082 206.34 30.3008V34.8008C206.34 35.7383 206.348 36.3867 206.363 36.7461C206.379 36.957 206.477 37.0938 206.656 37.1562L208.016 37.5547L208.039 38.0352C206.961 38.0117 206.039 38 205.273 38C204.508 38 203.598 38.0117 202.543 38.0352L202.496 37.5547L203.855 37.1562C204.035 37.0938 204.133 36.9727 204.148 36.793C204.164 36.4883 204.172 35.9766 204.172 35.2578V31.3438C204.172 30.3203 204.156 29.375 204.125 28.5078L202.566 28.0859L202.508 27.6875ZM209.305 27.6875C210.609 27.4375 211.848 27.1641 213.02 26.8672L213.137 26.9492V28.3203C214.582 27.3516 216 26.8672 217.391 26.8672L217.449 26.9375C217.223 28.1016 217 29.3086 216.781 30.5586L216.312 30.6406C216.094 29.9766 215.883 29.4453 215.68 29.0469C215.477 28.6406 215.156 28.4375 214.719 28.4375C214.297 28.4375 213.77 28.6328 213.137 29.0234V34.0977C213.137 35.3164 213.145 36.1875 213.16 36.7109C213.168 36.9219 213.266 37.0547 213.453 37.1094L215.012 37.5547L215.047 38.0352C213.828 38.0117 212.836 38 212.07 38C211.305 38 210.398 38.0117 209.352 38.0352L209.305 37.5547L210.664 37.1562C210.852 37.0938 210.949 36.9727 210.957 36.793C210.965 36.457 210.969 35.9766 210.969 35.3516V31.3555C210.969 30.082 210.953 29.1328 210.922 28.5078L209.363 28.0859L209.305 27.6875ZM224.645 32.6914C222.934 32.6914 221.766 32.8594 221.141 33.1953C220.516 33.5312 220.203 34.0977 220.203 34.8945C220.203 35.6367 220.41 36.1641 220.824 36.4766C221.238 36.7812 221.801 36.9336 222.512 36.9336C223.316 36.9336 224.02 36.7969 224.621 36.5234L224.645 32.6914ZM218.961 27.8633C220.484 27.1992 221.832 26.8672 223.004 26.8672C224.199 26.8672 225.129 27.1797 225.793 27.8047C226.465 28.4297 226.797 29.332 226.789 30.5117L226.73 35.3867C226.723 35.7852 226.73 36.1055 226.754 36.3477C226.785 36.5898 226.855 36.7773 226.965 36.9102C227.082 37.0352 227.254 37.125 227.48 37.1797C227.707 37.2266 228.012 37.2539 228.395 37.2617L228.453 37.7188C228.117 37.8516 227.707 37.9844 227.223 38.1172C226.738 38.25 226.41 38.3164 226.238 38.3164C225.48 38.3164 224.961 37.9258 224.68 37.1445C223.586 37.9336 222.555 38.3281 221.586 38.3281C220.5 38.3281 219.625 38.0625 218.961 37.5312C218.305 36.9922 217.977 36.2344 217.977 35.2578C217.977 34.0547 218.512 33.168 219.582 32.5977C220.66 32.0273 222.348 31.7422 224.645 31.7422L224.656 30.8281C224.664 29.9531 224.441 29.3047 223.988 28.8828C223.535 28.4609 222.84 28.25 221.902 28.25C221.191 28.25 220.301 28.3828 219.23 28.6484L218.961 27.8633Z" fill="white"/>
<defs>
<filter id="filter0_d_1_21" x="21.4856" y="13.2343" width="44.5144" height="37.2432" filterUnits="userSpaceOnUse" color-interpolation-filters="sRGB">
<feFlood flood-opacity="0" result="BackgroundImageFix"/>
<feColorMatrix in="SourceAlpha" type="matrix" values="0 0 0 0 0 0 0 0 0 0 0 0 0 0 0 0 0 0 127 0" result="hardAlpha"/>
<feOffset dy="4"/>
<feGaussianBlur stdDeviation="2"/>
<feComposite in2="hardAlpha" operator="out"/>
<feColorMatrix type="matrix" values="0 0 0 0 0 0 0 0 0 0 0 0 0 0 0 0 0 0 0.25 0"/>
<feBlend mode="normal" in2="BackgroundImageFix" result="effect1_dropShadow_1_21"/>
<feBlend mode="normal" in="SourceGraphic" in2="effect1_dropShadow_1_21" result="shape"/>
</filter>
<filter id="filter1_d_1_21" x="21.4856" y="13.2343" width="44.5144" height="37.2432" filterUnits="userSpaceOnUse" color-interpolation-filters="sRGB">
<feFlood flood-opacity="0" result="BackgroundImageFix"/>
<feColorMatrix in="SourceAlpha" type="matrix" values="0 0 0 0 0 0 0 0 0 0 0 0 0 0 0 0 0 0 127 0" result="hardAlpha"/>
<feOffset dy="4"/>
<feGaussianBlur stdDeviation="2"/>
<feComposite in2="hardAlpha" operator="out"/>
<feColorMatrix type="matrix" values="0 0 0 0 0 0 0 0 0 0 0 0 0 0 0 0 0 0 0.25 0"/>
<feBlend mode="normal" in2="BackgroundImageFix" result="effect1_dropShadow_1_21"/>
<feBlend mode="normal" in="SourceGraphic" in2="effect1_dropShadow_1_21" result="shape"/>
</filter>
<filter id="filter2_d_1_21" x="0" y="0" width="48.7815" height="45.9649" filterUnits="userSpaceOnUse" color-interpolation-filters="sRGB">
<feFlood flood-opacity="0" result="BackgroundImageFix"/>
<feColorMatrix in="SourceAlpha" type="matrix" values="0 0 0 0 0 0 0 0 0 0 0 0 0 0 0 0 0 0 127 0" result="hardAlpha"/>
<feOffset dy="4"/>
<feGaussianBlur stdDeviation="2"/>
<feComposite in2="hardAlpha" operator="out"/>
<feColorMatrix type="matrix" values="0 0 0 0 0 0 0 0 0 0 0 0 0 0 0 0 0 0 0.25 0"/>
<feBlend mode="normal" in2="BackgroundImageFix" result="effect1_dropShadow_1_21"/>
<feBlend mode="normal" in="SourceGraphic" in2="effect1_dropShadow_1_21" result="shape"/>
</filter>
</defs>
</svg>
